<?xml version="1.0" standalone="no"?>
<!DOCTYPE svg PUBLIC "-//W3C//DTD SVG 20010904//EN"
 "http://www.w3.org/TR/2001/REC-SVG-20010904/DTD/svg10.dtd">
<svg version="1.0" xmlns="http://www.w3.org/2000/svg"
 width="201.000000pt" height="201.000000pt" viewBox="0 0 201.000000 201.000000"
 preserveAspectRatio="xMidYMid meet">
<metadata>
Created by potrace 1.11, written by Peter Selinger 2001-2013
</metadata>
<g transform="translate(0.000000,201.000000) scale(0.100000,-0.100000)"
fill="#000000" stroke="none">
<path d="M982 1848 c-7 -7 -12 -8 -12 -2 0 5 -4 4 -8 -2 -4 -6 -34 -25 -67
-44 -33 -19 -63 -38 -67 -44 -4 -6 -8 -7 -8 -3 0 5 -15 -2 -32 -15 -18 -13
-35 -23 -38 -23 -3 0 -37 -19 -76 -42 -39 -23 -83 -47 -97 -54 -15 -7 -27 -15
-27 -19 0 -6 -24 -16 -45 -19 -3 0 -15 -10 -27 -21 -12 -11 -26 -20 -30 -20
-5 0 -34 -16 -64 -35 -30 -19 -59 -35 -64 -35 -6 0 -10 -4 -10 -9 0 -5 -10
-11 -23 -14 l-22 -6 0 -430 0 -431 42 -22 c24 -13 43 -26 43 -30 0 -5 9 -8 20
-8 11 0 20 -3 20 -7 0 -5 18 -17 40 -27 22 -11 40 -23 40 -28 0 -5 5 -6 10 -3
6 3 10 1 10 -5 0 -6 4 -8 10 -5 5 3 10 1 10 -5 0 -6 4 -8 10 -5 5 3 10 3 10
-2 0 -4 18 -17 40 -27 22 -11 40 -23 40 -28 0 -5 4 -7 8 -4 5 3 18 -3 29 -14
12 -10 24 -16 27 -13 3 4 6 1 6 -5 0 -7 3 -11 8 -10 13 3 62 -25 62 -35 0 -6
3 -7 7 -4 3 4 11 3 17 -2 6 -5 34 -21 61 -36 28 -15 59 -36 71 -46 11 -11 23
-16 27 -13 3 3 18 -3 33 -15 15 -11 30 -21 34 -21 7 0 141 75 247 138 28 17
54 28 57 25 3 -4 6 -2 6 3 0 5 17 18 38 29 20 11 39 22 42 25 3 3 14 10 25 16
67 36 119 66 140 80 14 9 25 13 25 10 0 -4 10 3 22 14 13 11 33 23 45 26 13 4
23 10 23 15 0 5 6 9 14 9 7 0 24 10 37 23 l24 22 -1 419 0 418 -27 16 c-15 9
-27 20 -27 24 0 5 -9 8 -19 8 -10 0 -22 7 -25 16 -3 8 -10 13 -14 10 -5 -3
-18 2 -28 12 -11 9 -26 18 -34 20 -8 2 -17 7 -20 11 -3 3 -16 12 -30 19 -14 7
-52 28 -85 47 -33 19 -68 38 -77 41 -10 3 -18 10 -18 15 0 5 -4 9 -9 9 -5 0
-62 31 -128 68 -163 94 -167 96 -173 102 -11 11 -37 9 -48 -2z"/>
</g>
</svg>
